<?xml version="1.0" standalone="no"?>
<!DOCTYPE svg PUBLIC "-//W3C//DTD SVG 20010904//EN"
 "http://www.w3.org/TR/2001/REC-SVG-20010904/DTD/svg10.dtd">
<svg version="1.0" xmlns="http://www.w3.org/2000/svg"
 width="512.000000pt" height="512.000000pt" viewBox="0 0 512.000000 512.000000"
 preserveAspectRatio="xMidYMid meet">
<metadata>
Created by potrace 1.14, written by Peter Selinger 2001-2017
</metadata>
<g transform="translate(0.000000,512.000000) scale(0.100000,-0.100000)"
fill="#000000" stroke="none">
<path d="M495 5101 c-186 -53 -345 -186 -431 -359 -69 -141 -64 23 -64 -2182
0 -2205 -5 -2041 64 -2182 88 -177 254 -314 442 -362 55 -14 270 -16 2054 -16
1784 0 1999 2 2054 16 188 48 354 185 442 362 69 141 64 -23 64 2182 0 2205 5
2041 -64 2182 -67 135 -179 247 -314 314 -141 69 24 64 -2188 63 -1860 0
-2003 -2 -2059 -18z m2493 -1503 c-8 -38 -698 -1932 -707 -1941 -4 -4 -60 -6
-123 -5 l-116 3 352 970 c193 534 355 976 359 983 6 8 42 12 124 12 114 0 115
0 111 -22z m-1178 -728 c-5 -3 -167 -66 -359 -140 -193 -74 -347 -138 -343
-141 4 -4 166 -67 360 -140 l352 -133 0 -153 c0 -84 -2 -153 -4 -153 -2 0
-235 103 -517 229 l-514 229 0 127 0 126 515 229 515 229 3 -151 c1 -94 -1
-154 -8 -158z m1989 76 l531 -229 0 -122 c0 -89 -3 -124 -12 -128 -7 -3 -245
-105 -528 -227 -283 -122 -521 -224 -528 -227 -10 -4 -12 27 -10 147 l3 153
379 142 379 142 -44 17 c-24 9 -195 72 -379 139 l-335 124 -3 152 c-1 88 1
151 7 149 5 -1 248 -106 540 -232z"/>
</g>
</svg>
